<svg width="105" height="86" viewBox="0 0 105 86" fill="none" xmlns="http://www.w3.org/2000/svg">
<path d="M38.1052 22.6054L24.4061 22.6054L24.4061 9.70936C24.4061 9.26585 24.7656 8.90631 25.2092 8.90631L38.1052 8.90631L38.1052 22.6054Z" fill="#F0F2FF" stroke="black" stroke-width="0.8125"/>
<path d="M38.1052 46.3946L38.1052 60.0937L25.2092 60.0937C24.7656 60.0937 24.4061 59.7341 24.4061 59.2906L24.4061 46.3946L38.1052 46.3946Z" fill="#F0F2FF" stroke="black" stroke-width="0.8125"/>
<path d="M61.8948 22.6054L75.5939 22.6054L75.5939 9.70936C75.5939 9.26585 75.2344 8.90631 74.7908 8.90631L61.8948 8.90631L61.8948 22.6054Z" fill="#F0F2FF" stroke="black" stroke-width="0.8125"/>
<mask id="path-4-inside-1_98_94" fill="white">
<path fill-rule="evenodd" clip-rule="evenodd" d="M38.5116 11.5234L28.2322 11.5234C27.5643 11.5234 27.0229 12.0648 27.0229 12.7327L27.0229 23.0116H24L24 9.7093C24 9.04142 24.5414 8.5 25.2093 8.5L38.5116 8.5V11.5234Z"/>
</mask>
<path fill-rule="evenodd" clip-rule="evenodd" d="M38.5116 11.5234L28.2322 11.5234C27.5643 11.5234 27.0229 12.0648 27.0229 12.7327L27.0229 23.0116H24L24 9.7093C24 9.04142 24.5414 8.5 25.2093 8.5L38.5116 8.5V11.5234Z" fill="#F0F2FF"/>
<path d="M28.2322 11.5234L28.2322 10.7109H28.2322V11.5234ZM38.5116 11.5234L38.5116 12.3359L39.3241 12.3359V11.5234H38.5116ZM27.0229 12.7327L27.8354 12.7327V12.7327H27.0229ZM27.0229 23.0116V23.8241H27.8354L27.8354 23.0116L27.0229 23.0116ZM24 23.0116L23.1875 23.0116L23.1875 23.8241H24V23.0116ZM24 9.7093L24.8125 9.7093L24 9.7093ZM25.2093 8.5L25.2093 9.3125L25.2093 8.5ZM38.5116 8.5H39.3241V7.6875L38.5116 7.6875L38.5116 8.5ZM28.2322 12.3359L38.5116 12.3359L38.5116 10.7109L28.2322 10.7109L28.2322 12.3359ZM27.8354 12.7327C27.8354 12.5136 28.0131 12.3359 28.2322 12.3359V10.7109C27.1156 10.7109 26.2104 11.6161 26.2104 12.7327H27.8354ZM27.8354 23.0116L27.8354 12.7327L26.2104 12.7327L26.2104 23.0116L27.8354 23.0116ZM27.0229 22.1991H24V23.8241H27.0229V22.1991ZM24.8125 23.0116L24.8125 9.7093L23.1875 9.7093L23.1875 23.0116L24.8125 23.0116ZM24.8125 9.7093C24.8125 9.49015 24.9902 9.3125 25.2093 9.3125L25.2093 7.6875C24.0927 7.6875 23.1875 8.59269 23.1875 9.7093L24.8125 9.7093ZM25.2093 9.3125L38.5116 9.3125L38.5116 7.6875L25.2093 7.6875L25.2093 9.3125ZM37.6991 8.5V11.5234H39.3241V8.5H37.6991Z" fill="black" mask="url(#path-4-inside-1_98_94)"/>
<mask id="path-6-inside-2_98_94" fill="white">
<path fill-rule="evenodd" clip-rule="evenodd" d="M27.0229 45.9884L27.0229 56.2673C27.0229 56.9352 27.5643 57.4766 28.2322 57.4766L38.5116 57.4766L38.5116 60.5L25.2093 60.5C24.5414 60.5 24 59.9586 24 59.2907L24 45.9884L27.0229 45.9884Z"/>
</mask>
<path fill-rule="evenodd" clip-rule="evenodd" d="M27.0229 45.9884L27.0229 56.2673C27.0229 56.9352 27.5643 57.4766 28.2322 57.4766L38.5116 57.4766L38.5116 60.5L25.2093 60.5C24.5414 60.5 24 59.9586 24 59.2907L24 45.9884L27.0229 45.9884Z" fill="#F0F2FF"/>
<path d="M27.0229 56.2673L26.2104 56.2673L26.2104 56.2673L27.0229 56.2673ZM27.0229 45.9884L27.8354 45.9884L27.8354 45.1759L27.0229 45.1759L27.0229 45.9884ZM28.2322 57.4766L28.2322 56.6641H28.2322L28.2322 57.4766ZM38.5116 57.4766L39.3241 57.4766L39.3241 56.6641L38.5116 56.6641L38.5116 57.4766ZM38.5116 60.5L38.5116 61.3125L39.3241 61.3125L39.3241 60.5L38.5116 60.5ZM25.2093 60.5L25.2093 61.3125L25.2093 60.5ZM24 59.2907L23.1875 59.2907L24 59.2907ZM24 45.9884L24 45.1759L23.1875 45.1759L23.1875 45.9884L24 45.9884ZM27.8354 56.2673L27.8354 45.9884L26.2104 45.9884L26.2104 56.2673L27.8354 56.2673ZM28.2322 56.6641C28.0131 56.6641 27.8354 56.4864 27.8354 56.2673L26.2104 56.2673C26.2104 57.3839 27.1156 58.2891 28.2322 58.2891L28.2322 56.6641ZM38.5116 56.6641L28.2322 56.6641L28.2322 58.2891L38.5116 58.2891L38.5116 56.6641ZM37.6991 57.4766L37.6991 60.5L39.3241 60.5L39.3241 57.4766L37.6991 57.4766ZM38.5116 59.6875L25.2093 59.6875L25.2093 61.3125L38.5116 61.3125L38.5116 59.6875ZM25.2093 59.6875C24.9902 59.6875 24.8125 59.5098 24.8125 59.2907L23.1875 59.2907C23.1875 60.4073 24.0927 61.3125 25.2093 61.3125L25.2093 59.6875ZM24.8125 59.2907L24.8125 45.9884L23.1875 45.9884L23.1875 59.2907L24.8125 59.2907ZM24 46.8009L27.0229 46.8009L27.0229 45.1759L24 45.1759L24 46.8009Z" fill="black" mask="url(#path-6-inside-2_98_94)"/>
<mask id="path-8-inside-3_98_94" fill="white">
<path fill-rule="evenodd" clip-rule="evenodd" d="M61.4884 11.5234L71.7673 11.5234C72.4352 11.5234 72.9766 12.0648 72.9766 12.7327L72.9766 23.0116H76L76 9.7093C76 9.04142 75.4586 8.5 74.7907 8.5L61.4884 8.5V11.5234Z"/>
</mask>
<path fill-rule="evenodd" clip-rule="evenodd" d="M61.4884 11.5234L71.7673 11.5234C72.4352 11.5234 72.9766 12.0648 72.9766 12.7327L72.9766 23.0116H76L76 9.7093C76 9.04142 75.4586 8.5 74.7907 8.5L61.4884 8.5V11.5234Z" fill="#F0F2FF"/>
<path d="M71.7673 11.5234L71.7673 10.7109H71.7673V11.5234ZM61.4884 11.5234L61.4884 12.3359L60.6759 12.3359V11.5234H61.4884ZM72.9766 12.7327L72.1641 12.7327V12.7327H72.9766ZM72.9766 23.0116V23.8241H72.1641L72.1641 23.0116L72.9766 23.0116ZM76 23.0116L76.8125 23.0116L76.8125 23.8241H76V23.0116ZM76 9.7093L75.1875 9.7093L76 9.7093ZM74.7907 8.5L74.7907 9.3125L74.7907 8.5ZM61.4884 8.5H60.6759V7.6875L61.4884 7.6875L61.4884 8.5ZM71.7673 12.3359L61.4884 12.3359L61.4884 10.7109L71.7673 10.7109L71.7673 12.3359ZM72.1641 12.7327C72.1641 12.5136 71.9864 12.3359 71.7673 12.3359V10.7109C72.8839 10.7109 73.7891 11.6161 73.7891 12.7327H72.1641ZM72.1641 23.0116L72.1641 12.7327L73.7891 12.7327L73.7891 23.0116L72.1641 23.0116ZM72.9766 22.1991H76V23.8241H72.9766V22.1991ZM75.1875 23.0116L75.1875 9.7093L76.8125 9.7093L76.8125 23.0116L75.1875 23.0116ZM75.1875 9.7093C75.1875 9.49015 75.0098 9.3125 74.7907 9.3125L74.7907 7.6875C75.9073 7.6875 76.8125 8.59269 76.8125 9.7093L75.1875 9.7093ZM74.7907 9.3125L61.4884 9.3125L61.4884 7.6875L74.7907 7.6875L74.7907 9.3125ZM62.3009 8.5V11.5234H60.6759V8.5H62.3009Z" fill="black" mask="url(#path-8-inside-3_98_94)"/>
<path d="M52.0122 22.6054L38.3131 22.6054L38.3131 8.90631L52.0122 8.90631L52.0122 22.6054Z" fill="#F0F2FF" stroke="black" stroke-width="0.8125"/>
<path d="M38.1052 22.8131L38.1052 36.5123L24.4061 36.5123L24.4061 22.8131L38.1052 22.8131Z" fill="#F0F2FF" stroke="black" stroke-width="0.8125"/>
<rect x="38.3132" y="8.90625" width="13.6991" height="2.21076" stroke="black" stroke-width="0.8125"/>
<rect x="24.4062" y="36.5123" width="13.6991" height="2.21076" transform="rotate(-90 24.4062 36.5123)" stroke="black" stroke-width="0.8125"/>
<path fill-rule="evenodd" clip-rule="evenodd" d="M30.0648 44.2513C28.5826 44.2513 27.3808 43.0158 27.3808 41.4921C27.3808 39.9683 28.5826 38.7328 30.0648 38.7328C31.547 38.7328 32.7488 39.9683 32.7488 41.4921C32.7488 43.0158 31.547 44.2513 30.0648 44.2513" fill="#D8D8D8"/>
<path d="M30.0649 43.0245L30.0649 40.2653" stroke="black" stroke-width="0.613167" stroke-linecap="round"/>
<path d="M31.2581 41.185L30.0652 39.9586L28.8723 41.185" stroke="black" stroke-width="0.613167" stroke-linecap="round" stroke-linejoin="round"/>
<path fill-rule="evenodd" clip-rule="evenodd" d="M58.0396 15.4921C58.0396 17.0158 56.8378 18.2513 55.3556 18.2513C53.8734 18.2513 52.6716 17.0158 52.6716 15.4921C52.6716 13.9683 53.8734 12.7328 55.3556 12.7328C56.8378 12.7328 58.0396 13.9683 58.0396 15.4921" fill="#D8D8D8"/>
<path d="M56.8471 15.4919H54.1631" stroke="black" stroke-width="0.613167" stroke-linecap="round"/>
<path d="M55.0571 14.2653L53.8643 15.4916L55.0571 16.7179" stroke="black" stroke-width="0.613167" stroke-linecap="round" stroke-linejoin="round"/>
<rect x="68.1394" y="26.035" width="1.2093" height="2.4186" fill="#848484"/>
<rect x="68.1392" y="30.2671" width="1.2093" height="2.4186" fill="#848484"/>
<rect x="68.1392" y="34.4999" width="1.2093" height="2.4186" fill="#848484"/>
<rect x="68.1392" y="38.7327" width="1.2093" height="2.4186" fill="#848484"/>
<rect x="68.1392" y="42.9648" width="1.2093" height="2.4186" fill="#848484"/>
<rect x="68.1392" y="47.1976" width="1.2093" height="2.4186" fill="#848484"/>
<rect x="68.1392" y="51.4301" width="1.2093" height="2.4186" fill="#848484"/>
<rect x="40.9297" y="53.8488" width="1.2093" height="2.4186" transform="rotate(-90 40.9297 53.8488)" fill="#848484"/>
<rect x="45.1628" y="53.8488" width="1.2093" height="2.4186" transform="rotate(-90 45.1628 53.8488)" fill="#848484"/>
<rect x="49.3955" y="53.8488" width="1.2093" height="2.4186" transform="rotate(-90 49.3955 53.8488)" fill="#848484"/>
<rect x="53.6279" y="53.8488" width="1.2093" height="2.4186" transform="rotate(-90 53.6279 53.8488)" fill="#848484"/>
<rect x="57.8606" y="53.8488" width="1.2093" height="2.4186" transform="rotate(-90 57.8606 53.8488)" fill="#848484"/>
<rect x="62.093" y="53.8488" width="1.2093" height="2.4186" transform="rotate(-90 62.093 53.8488)" fill="#848484"/>
<rect x="66.3257" y="53.8488" width="1.2093" height="2.4186" transform="rotate(-90 66.3257 53.8488)" fill="#848484"/>
<path d="M19.5774 72.41C19.8307 72.45 20.0607 72.5533 20.2674 72.72C20.4807 72.8867 20.6474 73.0933 20.7674 73.34C20.894 73.5867 20.9574 73.85 20.9574 74.13C20.9574 74.4833 20.8674 74.8033 20.6874 75.09C20.5074 75.37 20.244 75.5933 19.8974 75.76C19.5574 75.92 19.154 76 18.6874 76H16.0874V69.03H18.5874C19.0607 69.03 19.464 69.11 19.7974 69.27C20.1307 69.4233 20.3807 69.6333 20.5474 69.9C20.714 70.1667 20.7974 70.4667 20.7974 70.8C20.7974 71.2133 20.684 71.5567 20.4574 71.83C20.2374 72.0967 19.944 72.29 19.5774 72.41ZM16.9974 72.04H18.5274C18.954 72.04 19.284 71.94 19.5174 71.74C19.7507 71.54 19.8674 71.2633 19.8674 70.91C19.8674 70.5567 19.7507 70.28 19.5174 70.08C19.284 69.88 18.9474 69.78 18.5074 69.78H16.9974V72.04ZM18.6074 75.25C19.0607 75.25 19.414 75.1433 19.6674 74.93C19.9207 74.7167 20.0474 74.42 20.0474 74.04C20.0474 73.6533 19.914 73.35 19.6474 73.13C19.3807 72.9033 19.024 72.79 18.5774 72.79H16.9974V75.25H18.6074ZM27.0802 70.52V76H26.1702V75.19C25.9969 75.47 25.7535 75.69 25.4402 75.85C25.1335 76.0033 24.7935 76.08 24.4202 76.08C23.9935 76.08 23.6102 75.9933 23.2702 75.82C22.9302 75.64 22.6602 75.3733 22.4602 75.02C22.2669 74.6667 22.1702 74.2367 22.1702 73.73V70.52H23.0702V73.61C23.0702 74.15 23.2069 74.5667 23.4802 74.86C23.7535 75.1467 24.1269 75.29 24.6002 75.29C25.0869 75.29 25.4702 75.14 25.7502 74.84C26.0302 74.54 26.1702 74.1033 26.1702 73.53V70.52H27.0802ZM29.0867 69.63C28.9133 69.63 28.7667 69.57 28.6467 69.45C28.5267 69.33 28.4667 69.1833 28.4667 69.01C28.4667 68.8367 28.5267 68.69 28.6467 68.57C28.7667 68.45 28.9133 68.39 29.0867 68.39C29.2533 68.39 29.3933 68.45 29.5067 68.57C29.6267 68.69 29.6867 68.8367 29.6867 69.01C29.6867 69.1833 29.6267 69.33 29.5067 69.45C29.3933 69.57 29.2533 69.63 29.0867 69.63ZM29.5267 70.52V76H28.6167V70.52H29.5267ZM31.9876 68.6V76H31.0776V68.6H31.9876ZM33.1986 73.24C33.1986 72.68 33.3119 72.19 33.5386 71.77C33.7652 71.3433 34.0752 71.0133 34.4686 70.78C34.8686 70.5467 35.3152 70.43 35.8086 70.43C36.2352 70.43 36.6319 70.53 36.9986 70.73C37.3652 70.9233 37.6452 71.18 37.8386 71.5V68.6H38.7586V76H37.8386V74.97C37.6586 75.2967 37.3919 75.5667 37.0386 75.78C36.6852 75.9867 36.2719 76.09 35.7986 76.09C35.3119 76.09 34.8686 75.97 34.4686 75.73C34.0752 75.49 33.7652 75.1533 33.5386 74.72C33.3119 74.2867 33.1986 73.7933 33.1986 73.24ZM37.8386 73.25C37.8386 72.8367 37.7552 72.4767 37.5886 72.17C37.4219 71.8633 37.1952 71.63 36.9086 71.47C36.6286 71.3033 36.3186 71.22 35.9786 71.22C35.6386 71.22 35.3286 71.3 35.0486 71.46C34.7686 71.62 34.5452 71.8533 34.3786 72.16C34.2119 72.4667 34.1286 72.8267 34.1286 73.24C34.1286 73.66 34.2119 74.0267 34.3786 74.34C34.5452 74.6467 34.7686 74.8833 35.0486 75.05C35.3286 75.21 35.6386 75.29 35.9786 75.29C36.3186 75.29 36.6286 75.21 36.9086 75.05C37.1952 74.8833 37.4219 74.6467 37.5886 74.34C37.7552 74.0267 37.8386 73.6633 37.8386 73.25ZM47.8424 69.03L45.5724 73.37V76H44.6624V73.37L42.3824 69.03H43.3924L45.1124 72.56L46.8324 69.03H47.8424ZM51.1922 76.09C50.6789 76.09 50.2122 75.9733 49.7922 75.74C49.3789 75.5067 49.0522 75.1767 48.8122 74.75C48.5789 74.3167 48.4622 73.8167 48.4622 73.25C48.4622 72.69 48.5822 72.1967 48.8222 71.77C49.0689 71.3367 49.4022 71.0067 49.8222 70.78C50.2422 70.5467 50.7122 70.43 51.2322 70.43C51.7522 70.43 52.2222 70.5467 52.6422 70.78C53.0622 71.0067 53.3922 71.3333 53.6322 71.76C53.8789 72.1867 54.0022 72.6833 54.0022 73.25C54.0022 73.8167 53.8756 74.3167 53.6222 74.75C53.3756 75.1767 53.0389 75.5067 52.6122 75.74C52.1856 75.9733 51.7122 76.09 51.1922 76.09ZM51.1922 75.29C51.5189 75.29 51.8256 75.2133 52.1122 75.06C52.3989 74.9067 52.6289 74.6767 52.8022 74.37C52.9822 74.0633 53.0722 73.69 53.0722 73.25C53.0722 72.81 52.9856 72.4367 52.8122 72.13C52.6389 71.8233 52.4122 71.5967 52.1322 71.45C51.8522 71.2967 51.5489 71.22 51.2222 71.22C50.8889 71.22 50.5822 71.2967 50.3022 71.45C50.0289 71.5967 49.8089 71.8233 49.6422 72.13C49.4756 72.4367 49.3922 72.81 49.3922 73.25C49.3922 73.6967 49.4722 74.0733 49.6322 74.38C49.7989 74.6867 50.0189 74.9167 50.2922 75.07C50.5656 75.2167 50.8656 75.29 51.1922 75.29ZM60.0587 70.52V76H59.1487V75.19C58.9754 75.47 58.732 75.69 58.4187 75.85C58.112 76.0033 57.772 76.08 57.3987 76.08C56.972 76.08 56.5887 75.9933 56.2487 75.82C55.9087 75.64 55.6387 75.3733 55.4387 75.02C55.2454 74.6667 55.1487 74.2367 55.1487 73.73V70.52H56.0487V73.61C56.0487 74.15 56.1854 74.5667 56.4587 74.86C56.732 75.1467 57.1054 75.29 57.5787 75.29C58.0654 75.29 58.4487 75.14 58.7287 74.84C59.0087 74.54 59.1487 74.1033 59.1487 73.53V70.52H60.0587ZM62.5052 71.41C62.6652 71.0967 62.8919 70.8533 63.1852 70.68C63.4852 70.5067 63.8485 70.42 64.2752 70.42V71.36H64.0352C63.0152 71.36 62.5052 71.9133 62.5052 73.02V76H61.5952V70.52H62.5052V71.41ZM71.1517 76.07C70.505 76.07 69.915 75.92 69.3817 75.62C68.8483 75.3133 68.425 74.89 68.1117 74.35C67.805 73.8033 67.6517 73.19 67.6517 72.51C67.6517 71.83 67.805 71.22 68.1117 70.68C68.425 70.1333 68.8483 69.71 69.3817 69.41C69.915 69.1033 70.505 68.95 71.1517 68.95C71.805 68.95 72.3983 69.1033 72.9317 69.41C73.465 69.71 73.885 70.13 74.1917 70.67C74.4983 71.21 74.6517 71.8233 74.6517 72.51C74.6517 73.1967 74.4983 73.81 74.1917 74.35C73.885 74.89 73.465 75.3133 72.9317 75.62C72.3983 75.92 71.805 76.07 71.1517 76.07ZM71.1517 75.28C71.6383 75.28 72.075 75.1667 72.4617 74.94C72.855 74.7133 73.1617 74.39 73.3817 73.97C73.6083 73.55 73.7217 73.0633 73.7217 72.51C73.7217 71.95 73.6083 71.4633 73.3817 71.05C73.1617 70.63 72.8583 70.3067 72.4717 70.08C72.085 69.8533 71.645 69.74 71.1517 69.74C70.6583 69.74 70.2183 69.8533 69.8317 70.08C69.445 70.3067 69.1383 70.63 68.9117 71.05C68.6917 71.4633 68.5817 71.95 68.5817 72.51C68.5817 73.0633 68.6917 73.55 68.9117 73.97C69.1383 74.39 69.445 74.7133 69.8317 74.94C70.225 75.1667 70.665 75.28 71.1517 75.28ZM83.153 70.52L81.443 76H80.503L79.183 71.65L77.863 76H76.923L75.203 70.52H76.133L77.393 75.12L78.753 70.52H79.683L81.013 75.13L82.253 70.52H83.153ZM86.7261 70.42C87.3928 70.42 87.9328 70.6233 88.3461 71.03C88.7595 71.43 88.9661 72.01 88.9661 72.77V76H88.0661V72.9C88.0661 72.3533 87.9295 71.9367 87.6561 71.65C87.3828 71.3567 87.0095 71.21 86.5361 71.21C86.0561 71.21 85.6728 71.36 85.3861 71.66C85.1061 71.96 84.9661 72.3967 84.9661 72.97V76H84.0561V70.52H84.9661V71.3C85.1461 71.02 85.3895 70.8033 85.6961 70.65C86.0095 70.4967 86.3528 70.42 86.7261 70.42Z" fill="black"/>
</svg>
